{
    "asset" : {
        "generator" : "Khronos glTF Blender I/O v1.7.33",
        "version" : "2.0"
    },
    "scene" : 0,
    "scenes" : [
        {
            "name" : "Scene",
            "nodes" : [
                3
            ]
        }
    ],
    "nodes" : [
        {
            "mesh" : 0,
            "name" : "Ground",
            "scale" : [
                50,
                94.50247955322266,
                50
            ]
        },
        {
            "mesh" : 1,
            "name" : "Row1",
            "translation" : [
                1.1699999570846558,
                0.009999999776482582,
                -10
            ]
        },
        {
            "mesh" : 2,
            "name" : "Row2",
            "translation" : [
                1.1699999570846558,
                0.009999999776482582,
                10
            ]
        },
        {
            "children" : [
                0,
                1,
                2
            ],
            "name" : "Parking"
        }
    ],
    "materials" : [
        {
            "doubleSided" : true,
            "name" : "Asphalt",
            "pbrMetallicRoughness" : {
                "baseColorFactor" : [
                    0.023422671481966972,
                    0.023422671481966972,
                    0.023422671481966972,
                    1
                ],
                "metallicFactor" : 0,
                "roughnessFactor" : 0.5
            }
        },
        {
            "doubleSided" : true,
            "name" : "Lines",
            "pbrMetallicRoughness" : {
                "metallicFactor" : 0,
                "roughnessFactor" : 0.5
            }
        }
    ],
    "meshes" : [
        {
            "name" : "Plane.001",
            "primitives" : [
                {
                    "attributes" : {
                        "POSITION" : 0,
                        "NORMAL" : 1,
                        "TEXCOORD_0" : 2
                    },
                    "indices" : 3,
                    "material" : 0
                }
            ]
        },
        {
            "name" : "Row1",
            "primitives" : [
                {
                    "attributes" : {
                        "POSITION" : 4,
                        "NORMAL" : 5,
                        "TEXCOORD_0" : 6
                    },
                    "indices" : 7,
                    "material" : 1
                }
            ]
        },
        {
            "name" : "Row2",
            "primitives" : [
                {
                    "attributes" : {
                        "POSITION" : 8,
                        "NORMAL" : 9,
                        "TEXCOORD_0" : 10
                    },
                    "indices" : 7,
                    "material" : 1
                }
            ]
        }
    ],
    "accessors" : [
        {
            "bufferView" : 0,
            "componentType" : 5126,
            "count" : 4,
            "max" : [
                1,
                0,
                1
            ],
            "min" : [
                -1,
                0,
                -1
            ],
            "type" : "VEC3"
        },
        {
            "bufferView" : 1,
            "componentType" : 5126,
            "count" : 4,
            "type" : "VEC3"
        },
        {
            "bufferView" : 2,
            "componentType" : 5126,
            "count" : 4,
            "type" : "VEC2"
        },
        {
            "bufferView" : 3,
            "componentType" : 5123,
            "count" : 6,
            "type" : "SCALAR"
        },
        {
            "bufferView" : 4,
            "componentType" : 5126,
            "count" : 700,
            "max" : [
                34.63976287841797,
                0,
                5.819313049316406
            ],
            "min" : [
                -34.62552261352539,
                0,
                -5.819313049316406
            ],
            "type" : "VEC3"
        },
        {
            "bufferView" : 5,
            "componentType" : 5126,
            "count" : 700,
            "type" : "VEC3"
        },
        {
            "bufferView" : 6,
            "componentType" : 5126,
            "count" : 700,
            "type" : "VEC2"
        },
        {
            "bufferView" : 7,
            "componentType" : 5123,
            "count" : 1716,
            "type" : "SCALAR"
        },
        {
            "bufferView" : 8,
            "componentType" : 5126,
            "count" : 700,
            "max" : [
                34.63976287841797,
                0,
                5.819313049316406
            ],
            "min" : [
                -34.62552261352539,
                0,
                -5.819313049316406
            ],
            "type" : "VEC3"
        },
        {
            "bufferView" : 9,
            "componentType" : 5126,
            "count" : 700,
            "type" : "VEC3"
        },
        {
            "bufferView" : 10,
            "componentType" : 5126,
            "count" : 700,
            "type" : "VEC2"
        }
    ],
    "bufferViews" : [
        {
            "buffer" : 0,
            "byteLength" : 48,
            "byteOffset" : 0
        },
        {
            "buffer" : 0,
            "byteLength" : 48,
            "byteOffset" : 48
        },
        {
            "buffer" : 0,
            "byteLength" : 32,
            "byteOffset" : 96
        },
        {
            "buffer" : 0,
            "byteLength" : 12,
            "byteOffset" : 128
        },
        {
            "buffer" : 0,
            "byteLength" : 8400,
            "byteOffset" : 140
        },
        {
            "buffer" : 0,
            "byteLength" : 8400,
            "byteOffset" : 8540
        },
        {
            "buffer" : 0,
            "byteLength" : 5600,
            "byteOffset" : 16940
        },
        {
            "buffer" : 0,
            "byteLength" : 3432,
            "byteOffset" : 22540
        },
        {
            "buffer" : 0,
            "byteLength" : 8400,
            "byteOffset" : 25972
        },
        {
            "buffer" : 0,
            "byteLength" : 8400,
            "byteOffset" : 34372
        },
        {
            "buffer" : 0,
            "byteLength" : 5600,
            "byteOffset" : 42772
        }
    ],
    "buffers" : [
        {
            "byteLength" : 48372,
            "uri" : "data:application/octet-stream;base64,"
        }
    ]
}
